PathFileType	4	(X/Y/Z)	C:/Users/opensim2020/Desktop/walking_exp_matlab/subject03_walking16_run.trc	
DataRate	CameraRate	NumFrames	NumMarkers	Units	OrigDataRate	OrigDataStartFrame	OrigNumFrames	
100.00	100.00	9	49	mm	100.00	256	131	
Frame#	Time	RKNE			RTOE			RWRB			LTHI			RELB			RFRM			RUPA			RASI			LTIB			RWRA			RTHI			LSHO			LTOE			RTIB			LWRA			CLAV			LASI			RSHO			RFHD			STRN			LHEE			RFIN			RBHD			LFRM			C7			LWRB			LFIN			LUPA			LBHD			LELB			RANK			RHEE			RBAK			LPSI			T10			LFHD			RPSI			LKNE			LANK			*39			*40			*41			*42			*43			*44			*45			*46			*47			*48			
		X1	Y1	Z1	X2	Y2	Z2	X3	Y3	Z3	X4	Y4	Z4	X5	Y5	Z5	X6	Y6	Z6	X7	Y7	Z7	X8	Y8	Z8	X9	Y9	Z9	X10	Y10	Z10	X11	Y11	Z11	X12	Y12	Z12	X13	Y13	Z13	X14	Y14	Z14	X15	Y15	Z15	X16	Y16	Z16	X17	Y17	Z17	X18	Y18	Z18	X19	Y19	Z19	X20	Y20	Z20	X21	Y21	Z21	X22	Y22	Z22	X23	Y23	Z23	X24	Y24	Z24	X25	Y25	Z25	X26	Y26	Z26	X27	Y27	Z27	X28	Y28	Z28	X29	Y29	Z29	X30	Y30	Z30	X31	Y31	Z31	X32	Y32	Z32	X33	Y33	Z33	X34	Y34	Z34	X35	Y35	Z35	X36	Y36	Z36	X37	Y37	Z37	X38	Y38	Z38	X39	Y39	Z39	X40	Y40	Z40	X41	Y41	Z41	X42	Y42	Z42	X43	Y43	Z43	X44	Y44	Z44	X45	Y45	Z45	X46	Y46	Z46	X47	Y47	Z47	X48	Y48	Z48	X49	Y49	Z49	

66	0.650	353.28217	471.10300	410.23325	277.52411	363.87399	31.63398	478.13412	578.08771	878.91309	74.38040	469.92184	569.56390	546.26581	403.38156	1001.19019	509.12015	503.36041	932.76733	520.65674	382.92181	1094.86670	364.50650	431.91565	870.46661	99.02465	365.91919	336.31989	439.56735	575.32166	917.18079	401.05692	418.18912	582.97845	103.07996	431.18854	1318.59192	148.89180	189.14694	127.96109	347.43973	367.12354	244.93823	102.84494	479.03839	872.78192	255.91724	474.93170	1267.10901	127.22530	445.59137	852.74805	410.05435	420.92151	1290.33081	325.92059	445.73273	1565.20056	246.80733	506.86905	1095.17200	158.65077	116.24345	298.90558	450.97931	644.92053	883.12720	318.60056	343.64871	1483.71985	21.79978	427.80142	952.83905	248.22583	349.81296	1343.27258	46.87663	492.44302	866.50299	87.25098	527.97266	798.48273	-0.50741	369.95920	1149.23816	188.33786	353.85983	1477.62793	-21.97793	353.05820	1038.62866	294.96118	236.72874	75.08475	245.58270	179.24664	58.54232	334.23981	290.92542	1171.52026	161.08066	283.85785	889.34448	231.19362	295.47202	1041.33826	193.06628	461.00195	1559.65845	308.54803	275.08676	911.92896	102.40411	540.61749	402.56573	125.44093	168.13309	273.15881																						234.94876	357.29532	1590.82202						 
67	0.660	354.39969	480.97876	404.53128	277.79120	363.57581	31.46099	469.80997	629.06256	895.05536	75.52831	508.98376	576.35181	543.70563	447.51440	1003.28979	503.59036	551.53784	942.97333	519.38293	422.76382	1095.56348	366.24237	462.49246	870.24536	98.98949	422.27603	334.73254	432.84225	623.42999	934.58881	401.03235	436.71701	580.04163	103.02956	460.97366	1321.18481	149.36830	265.79565	114.74325	348.53622	372.21735	243.52106	89.56078	495.28833	875.12579	255.24098	506.99326	1268.61536	127.57501	477.13376	855.04822	409.95801	454.60156	1293.13892	326.37689	478.71951	1566.76575	246.13855	538.42212	1096.83374	157.75513	174.88322	276.81320	442.04703	694.74792	904.44525	319.24493	376.33148	1485.69385	11.79180	443.79367	957.97003	248.94933	381.35892	1344.93213	32.94977	506.02911	868.94031	70.83121	540.98737	799.21155	-3.22474	391.28098	1157.06702	188.92822	385.82889	1479.75256	-27.70472	370.19363	1047.51416	296.47534	237.43851	77.14688	247.76956	179.51193	62.44382	336.56174	324.48325	1173.45361	161.92949	315.33231	891.65186	232.98491	327.55133	1043.13184	193.47279	493.41406	1561.57532	309.35144	307.22949	913.03198	103.71738	591.66022	415.26578	124.84149	229.56581	255.74281																						235.92308	389.83005	1592.99365						 
68	0.670	355.34341	489.98956	401.09317	278.05591	363.17233	31.23520	461.60184	678.29187	913.66913	77.06249	547.24524	583.70764	540.65106	491.17017	1006.76068	497.65179	597.94110	954.92010	517.92688	463.75623	1097.59900	367.44388	493.94751	870.55774	99.42166	478.07468	333.28622	426.70544	670.00177	954.32544	400.81705	454.10098	578.75415	102.91454	490.15091	1325.20862	150.96828	343.41064	101.66621	349.48389	376.88989	243.68488	76.82979	512.14667	881.50568	254.33441	539.06421	1271.44629	127.46024	509.26865	858.50897	409.72729	488.51596	1297.13281	326.66525	511.70419	1569.60559	244.90561	570.55890	1099.98669	157.74493	235.58421	252.95160	434.08228	743.17987	928.36224	319.67810	409.01416	1489.01978	2.39395	459.91882	966.16425	249.98373	413.36462	1347.93103	20.07242	519.74701	874.80017	55.67015	554.98621	804.15527	-5.63218	413.18506	1166.38684	189.35040	417.98969	1483.34302	-33.22348	387.73526	1058.22827	298.21194	238.38074	80.60371	249.79875	179.66441	68.11376	338.93521	358.34424	1176.37195	163.20081	347.70380	895.36090	234.52446	360.37552	1045.48608	193.70677	526.02106	1564.69800	310.68546	339.89783	915.46094	105.40982	640.57080	429.10840	125.22778	292.42667	237.42104																						236.36496	423.02206	1596.25647						 
69	0.680	356.06268	498.69733	400.47131	278.59341	363.21597	31.16862	453.29520	725.27209	933.88489	78.54274	584.97333	591.66119	537.34863	534.16693	1011.63611	491.52359	642.83026	968.66595	515.66602	504.96506	1100.98926	368.36386	526.50281	871.45190	100.62345	533.13245	331.83246	420.42264	714.21429	975.22827	400.58661	471.57480	579.76007	102.99126	518.84845	1330.48804	153.31461	422.46130	89.28337	350.68726	381.64001	245.93916	65.68659	529.73364	890.98737	253.18219	571.19208	1275.40991	127.88667	541.51074	863.10889	409.28198	522.57172	1302.29285	326.83929	544.72125	1573.42688	243.30028	603.33063	1104.42859	158.99950	299.06573	227.59361	426.72470	789.31287	953.96039	319.92743	441.58173	1493.50647	-6.23569	476.61514	976.64435	251.15192	445.36951	1351.71924	8.10019	534.64313	883.82239	40.97842	570.58057	812.50507	-7.81909	435.85068	1176.86145	189.59349	450.22159	1488.20056	-38.01923	406.05292	1070.38159	299.88458	240.26030	85.56374	251.72632	181.07292	75.55776	341.26169	392.71317	1180.00879	164.87744	380.71774	900.19171	236.29497	393.52277	1048.69592	193.87894	558.60217	1568.85449	312.43915	373.66165	918.98535	106.90658	686.95013	443.35840	126.42815	357.26981	218.21718																						236.92749	456.07935	1600.95105						 
70	0.690	357.03467	508.10049	402.77661	278.95901	363.66626	30.95982	445.47342	770.09479	955.34448	79.93301	622.97144	600.28644	533.51575	576.08362	1017.84637	485.61520	686.14508	983.67474	513.21869	546.20276	1105.77747	368.03928	560.44006	874.03052	101.97881	587.64325	329.78604	414.12857	756.07343	996.76147	400.57251	491.01208	583.20190	103.21665	547.24915	1336.74292	156.78329	502.25955	78.07877	351.77737	387.26965	250.57774	55.08306	549.20526	902.68530	251.79469	603.42902	1280.41663	128.27124	576.33899	868.72131	408.62137	556.84937	1308.46216	326.91611	577.72803	1578.07434	241.53181	636.60760	1109.91223	161.15202	364.90732	202.38885	418.24088	832.03143	979.64996	320.02731	474.12830	1498.90295	-13.78997	494.52481	989.25226	252.34019	477.21521	1356.09705	-2.51489	551.01526	895.31390	28.39227	586.80481	822.88123	-9.39152	459.53586	1188.03259	189.62939	482.39224	1493.96619	-41.98583	425.20905	1083.64453	301.27704	242.91705	92.73721	253.33308	184.24802	85.11176	343.63184	427.34509	1184.01392	166.33003	414.30405	905.77588	238.31842	427.70905	1052.47095	193.88254	591.31360	1573.89380	314.37567	408.27576	923.44232	108.29018	730.86603	457.10013	128.62521	423.99521	198.87700																						237.45647	489.24634	1606.37695						 
71	0.700	358.34641	518.76105	407.44556	279.01031	364.14645	30.52899	438.11023	812.75732	977.17664	80.49369	661.09277	609.41803	530.05713	617.65515	1025.52234	480.00458	727.88959	999.47424	510.41248	587.14288	1111.78760	368.32745	595.25372	876.99335	103.21310	641.66406	327.19879	408.32828	795.97498	1018.55676	400.85944	513.21570	588.30463	103.61234	575.54279	1343.65564	160.94905	582.91064	68.06211	353.37698	394.07922	257.89050	46.05765	569.35223	915.91132	250.31538	635.69946	1286.25720	129.05450	612.41461	875.88702	407.77832	591.21594	1315.39807	326.88663	610.73145	1583.38367	239.89000	670.15314	1116.12134	164.24834	433.49631	177.46831	412.02280	873.34326	1006.24109	319.98987	506.67722	1504.94080	-20.24443	513.53577	1003.31476	253.48663	508.92001	1361.01477	-11.49881	569.33545	908.73486	18.98220	604.07867	834.55316	-10.86552	483.87802	1199.80273	189.56950	514.54431	1500.37964	-45.44029	445.34714	1097.73364	303.03232	247.36397	101.75158	254.79515	189.48767	97.11680	345.89432	462.37988	1188.63330	167.36600	448.34958	912.59888	240.36078	461.31830	1056.86609	193.87086	623.96564	1579.67139	315.92981	443.52521	928.74530	109.58463	772.32611	469.97617	131.46960	492.61282	179.86844																						237.82507	522.43073	1612.61462						 
72	0.710	359.89026	531.20654	413.98773	279.00229	365.40552	30.39691	431.04663	853.24689	998.80353	80.83926	699.13544	619.10480	526.63934	658.00171	1034.15466	474.51108	767.85791	1015.57263	507.34833	627.46600	1118.63928	367.81546	630.45166	880.92102	105.11499	695.29199	324.31958	402.82797	833.95898	1039.95557	401.48761	537.11298	594.49414	104.20751	603.93060	1351.03223	165.82227	664.21130	59.42022	355.42813	402.22134	267.49179	39.15791	590.05652	929.55664	248.76436	668.01300	1292.79041	131.21660	647.42273	882.92224	406.71973	625.55530	1322.93115	326.77756	643.64240	1589.23206	238.31998	703.87659	1122.95813	168.05580	504.69635	153.48729	404.80685	911.79987	1031.29480	319.86688	539.28149	1511.36389	-25.44557	533.81555	1018.22266	254.58374	540.29944	1366.53735	-18.47487	589.46637	923.14465	11.42447	622.35205	846.58899	-11.62964	508.95160	1211.77759	189.41794	546.72833	1507.29883	-48.15222	466.39844	1112.34644	304.74231	253.61093	113.00716	256.25125	197.16649	111.15010	348.11090	497.62851	1193.83362	167.95232	483.63376	919.85547	242.60773	496.05078	1061.71912	193.82941	656.50293	1586.02429	316.96698	479.19302	934.69495	110.87067	811.31189	481.33264	135.03973	563.12769	161.58821																						238.08389	555.45935	1619.40271						 
73	0.720	361.82791	545.38068	422.26700	279.19305	367.13745	30.51954	424.56839	891.97687	1019.69763	80.95521	736.88922	628.99371	523.44330	697.34979	1043.35229	469.87134	806.97968	1031.15979	504.92426	667.25482	1126.30566	367.73029	666.42224	885.83130	107.47481	748.12286	321.42322	397.77521	870.42932	1060.26868	402.46005	561.93280	601.89392	104.86795	632.81610	1358.66907	171.51289	745.52441	51.85789	357.67520	411.84937	279.02698	33.21721	612.43469	942.88428	247.30168	700.32886	1299.73975	132.88081	683.30627	890.93817	405.60580	659.83893	1330.72888	326.56378	676.48193	1595.40979	236.91647	737.64270	1130.16809	172.63614	578.37518	131.21802	398.81485	948.66083	1055.75012	319.49142	571.90454	1518.01453	-29.24833	555.33270	1033.16882	255.43933	572.23267	1372.27551	-23.84033	610.91321	937.76147	5.31002	641.31213	858.61609	-11.72186	534.29846	1224.10034	189.03783	579.19409	1514.55896	-50.07351	488.59564	1127.11792	306.78345	262.59863	125.69363	258.03491	207.81001	126.48748	350.30673	532.88171	1199.53125	168.12152	519.80322	927.60297	244.83896	530.85803	1066.95520	193.41226	689.21472	1592.89709	317.49451	515.34729	941.26331	112.33960	848.37103	491.47998	139.03705	635.51129	144.41931																						238.31950	588.45819	1626.27222						 
74	0.730	364.06635	561.26160	431.90952	279.18280	368.93616	30.43891	418.55630	929.02521	1039.53833	80.99272	774.12891	638.62988	520.76367	735.67596	1052.77588	464.96741	844.17554	1046.29382	502.46204	705.69965	1134.18994	367.32407	702.80359	891.38544	109.89791	799.96454	318.52866	393.19293	905.41760	1079.80298	403.34003	587.49188	610.14136	105.52742	662.37231	1366.33533	177.81140	826.93896	45.43908	360.93799	423.83875	291.59085	29.64926	633.79846	955.79108	245.87555	732.65765	1306.94434	134.01210	719.73669	898.77063	404.44843	693.95294	1338.56921	326.29413	709.28381	1601.72998	235.44939	771.40247	1137.84851	177.36156	654.14020	111.65455	392.89771	983.80951	1078.69629	319.01703	604.43903	1524.75342	-31.85055	578.04260	1047.81860	255.92570	604.69598	1378.22095	-28.16216	633.40277	951.97314	-0.43099	661.62000	870.72925	-11.86526	561.18768	1236.58545	188.57869	611.51166	1521.71167	-51.21997	512.10541	1141.89807	309.70261	274.51205	138.75060	260.37500	221.72414	142.43280	352.46933	568.20618	1205.65820	168.17780	556.56866	935.46686	246.75702	566.17773	1072.46252	193.36015	721.73694	1599.61975	317.62936	551.92133	948.27191	114.19793	883.50824	499.97592	143.34709	709.44769	129.21571																						238.49374	620.63214	1634.15247						 
